{
	"asset":{
		"generator":"Khronos glTF Blender I/O v4.1.63",
		"version":"2.0"
	},
	"scene":0,
	"scenes":[
		{
			"name":"Scene",
			"nodes":[
				2
			]
		}
	],
	"nodes":[
		{
			"mesh":0,
			"name":"coke-can-body"
		},
		{
			"mesh":1,
			"name":"coke-can-opener",
			"translation":[
				0,
				-0.021260660141706467,
				-11.642280578613281
			]
		},
		{
			"children":[
				0,
				1
			],
			"name":"coke-can",
			"rotation":[
				0.7071068286895752,
				0,
				0,
				0.7071068286895752
			],
			"scale":[
				0.009999999776482582,
				0.009999999776482582,
				0.009999999776482582
			]
		}
	],
	"materials":[
		{
			"doubleSided":true,
			"name":"Metal",
			"pbrMetallicRoughness":{
				"roughnessFactor":0.20681819319725037
			}
		},
		{
			"doubleSided":true,
			"name":"Can Body",
			"pbrMetallicRoughness":{
				"roughnessFactor":0
			}
		},
		{
			"doubleSided":true,
			"name":"Can Body.ImgTexture",
			"pbrMetallicRoughness":{
				"baseColorTexture":{
					"index":0
				},
				"metallicFactor":0.6000000238418579,
				"roughnessFactor":0.26363638043403625
			}
		}
	],
	"meshes":[
		{
			"name":"Mesh",
			"primitives":[
				{
					"attributes":{
						"POSITION":0,
						"NORMAL":1,
						"TEXCOORD_0":2
					},
					"indices":3,
					"material":0
				},
				{
					"attributes":{
						"POSITION":4,
						"NORMAL":5,
						"TEXCOORD_0":6
					},
					"indices":7,
					"material":1
				},
				{
					"attributes":{
						"POSITION":8,
						"NORMAL":9,
						"TEXCOORD_0":10
					},
					"indices":11,
					"material":2
				}
			]
		},
		{
			"name":"Mesh.001",
			"primitives":[
				{
					"attributes":{
						"POSITION":12,
						"NORMAL":13,
						"TEXCOORD_0":14
					},
					"indices":15,
					"material":0
				}
			]
		}
	],
	"textures":[
		{
			"sampler":0,
			"source":0
		}
	],
	"images":[
		{
			"mimeType":"image/jpeg",
			"name":"fanta_texture",
			"uri":"texture/fanta/fanta_texture.jpg"
		}
	],
	"accessors":[
		{
			"bufferView":0,
			"componentType":5126,
			"count":885985,
			"max":[
				2.706101179122925,
				2.70609450340271,
				-0.0033138832077383995
			],
			"min":[
				-2.7060890197753906,
				-2.706094741821289,
				-12.064521789550781
			],
			"type":"VEC3"
		},
		{
			"bufferView":1,
			"componentType":5126,
			"count":885985,
			"type":"VEC3"
		},
		{
			"bufferView":2,
			"componentType":5126,
			"count":885985,
			"type":"VEC2"
		},
		{
			"bufferView":3,
			"componentType":5125,
			"count":4406400,
			"type":"SCALAR"
		},
		{
			"bufferView":4,
			"componentType":5126,
			"count":10808,
			"max":[
				2.5416934490203857,
				2.5416858196258545,
				-11.806394577026367
			],
			"min":[
				-2.5416791439056396,
				-2.541686534881592,
				-11.874275207519531
			],
			"type":"VEC3"
		},
		{
			"bufferView":5,
			"componentType":5126,
			"count":10808,
			"type":"VEC3"
		},
		{
			"bufferView":6,
			"componentType":5126,
			"count":10808,
			"type":"VEC2"
		},
		{
			"bufferView":7,
			"componentType":5123,
			"count":55296,
			"type":"SCALAR"
		},
		{
			"bufferView":8,
			"componentType":5126,
			"count":283787,
			"max":[
				3.1589276790618896,
				3.158921003341675,
				-0.4541437327861786
			],
			"min":[
				-3.158914804458618,
				-3.158921957015991,
				-11.819458961486816
			],
			"type":"VEC3"
		},
		{
			"bufferView":9,
			"componentType":5126,
			"count":283787,
			"type":"VEC3"
		},
		{
			"bufferView":10,
			"componentType":5126,
			"count":283787,
			"type":"VEC2"
		},
		{
			"bufferView":11,
			"componentType":5125,
			"count":1468800,
			"type":"SCALAR"
		},
		{
			"bufferView":12,
			"componentType":5126,
			"count":17515,
			"max":[
				0.7886778712272644,
				1.750016212463379,
				0.03762450069189072
			],
			"min":[
				-0.7886649966239929,
				-0.7851152420043945,
				-0.05382504314184189
			],
			"type":"VEC3"
		},
		{
			"bufferView":13,
			"componentType":5126,
			"count":17515,
			"type":"VEC3"
		},
		{
			"bufferView":14,
			"componentType":5126,
			"count":17515,
			"type":"VEC2"
		},
		{
			"bufferView":15,
			"componentType":5123,
			"count":32544,
			"type":"SCALAR"
		}
	],
	"bufferViews":[
		{
			"buffer":0,
			"byteLength":10631820,
			"byteOffset":0,
			"target":34962
		},
		{
			"buffer":0,
			"byteLength":10631820,
			"byteOffset":10631820,
			"target":34962
		},
		{
			"buffer":0,
			"byteLength":7087880,
			"byteOffset":21263640,
			"target":34962
		},
		{
			"buffer":0,
			"byteLength":17625600,
			"byteOffset":28351520,
			"target":34963
		},
		{
			"buffer":0,
			"byteLength":129696,
			"byteOffset":45977120,
			"target":34962
		},
		{
			"buffer":0,
			"byteLength":129696,
			"byteOffset":46106816,
			"target":34962
		},
		{
			"buffer":0,
			"byteLength":86464,
			"byteOffset":46236512,
			"target":34962
		},
		{
			"buffer":0,
			"byteLength":110592,
			"byteOffset":46322976,
			"target":34963
		},
		{
			"buffer":0,
			"byteLength":3405444,
			"byteOffset":46433568,
			"target":34962
		},
		{
			"buffer":0,
			"byteLength":3405444,
			"byteOffset":49839012,
			"target":34962
		},
		{
			"buffer":0,
			"byteLength":2270296,
			"byteOffset":53244456,
			"target":34962
		},
		{
			"buffer":0,
			"byteLength":5875200,
			"byteOffset":55514752,
			"target":34963
		},
		{
			"buffer":0,
			"byteLength":210180,
			"byteOffset":61389952,
			"target":34962
		},
		{
			"buffer":0,
			"byteLength":210180,
			"byteOffset":61600132,
			"target":34962
		},
		{
			"buffer":0,
			"byteLength":140120,
			"byteOffset":61810312,
			"target":34962
		},
		{
			"buffer":0,
			"byteLength":65088,
			"byteOffset":61950432,
			"target":34963
		}
	],
	"samplers":[
		{
			"magFilter":9729,
			"minFilter":9987
		}
	],
	"buffers":[
		{
			"byteLength":62015520,
			"uri":"fanta_with_texture.bin"
		}
	]
}
