{
	"asset":{
		"generator":"Khronos glTF Blender I/O v4.1.63",
		"version":"2.0"
	},
	"scene":0,
	"scenes":[
		{
			"name":"Scene",
			"nodes":[
				2
			]
		}
	],
	"nodes":[
		{
			"mesh":0,
			"name":"coke-can-body"
		},
		{
			"mesh":1,
			"name":"coke-can-opener",
			"translation":[
				0,
				-0.021260660141706467,
				-11.642280578613281
			]
		},
		{
			"children":[
				0,
				1
			],
			"name":"coke-can",
			"rotation":[
				0.7071068286895752,
				0,
				0,
				0.7071068286895752
			],
			"scale":[
				0.009999999776482582,
				0.009999999776482582,
				0.009999999776482582
			]
		}
	],
	"materials":[
		{
			"doubleSided":true,
			"name":"Metal",
			"pbrMetallicRoughness":{
				"roughnessFactor":0.20681819319725037
			}
		},
		{
			"doubleSided":true,
			"name":"Can Body",
			"pbrMetallicRoughness":{
				"roughnessFactor":0
			}
		},
		{
			"doubleSided":true,
			"name":"Can Body.ImgTexture",
			"pbrMetallicRoughness":{
				"baseColorTexture":{
					"index":0
				},
				"metallicFactor":0.6000000238418579,
				"roughnessFactor":0.26363638043403625
			}
		}
	],
	"meshes":[
		{
			"name":"Mesh",
			"primitives":[
				{
					"attributes":{
						"POSITION":0,
						"NORMAL":1,
						"TEXCOORD_0":2
					},
					"indices":3,
					"material":0
				},
				{
					"attributes":{
						"POSITION":4,
						"NORMAL":5,
						"TEXCOORD_0":6
					},
					"indices":7,
					"material":1
				},
				{
					"attributes":{
						"POSITION":8,
						"NORMAL":9,
						"TEXCOORD_0":10
					},
					"indices":11,
					"material":2
				}
			]
		},
		{
			"name":"Mesh.001",
			"primitives":[
				{
					"attributes":{
						"POSITION":12,
						"NORMAL":13,
						"TEXCOORD_0":14
					},
					"indices":15,
					"material":0
				}
			]
		}
	],
	"textures":[
		{
			"sampler":0,
			"source":0
		}
	],
	"images":[
		{
			"mimeType":"image/jpeg",
			"name":"sprite_texture",
			"uri":"texture/sprite/sprite_texture.jpg"
		}
	],
	"accessors":[
		{
			"bufferView":0,
			"componentType":5126,
			"count":885948,
			"max":[
				2.7060389518737793,
				2.7060327529907227,
				-0.003489756491035223
			],
			"min":[
				-2.706027030944824,
				-2.7060327529907227,
				-12.064471244812012
			],
			"type":"VEC3"
		},
		{
			"bufferView":1,
			"componentType":5126,
			"count":885948,
			"type":"VEC3"
		},
		{
			"bufferView":2,
			"componentType":5126,
			"count":885948,
			"type":"VEC2"
		},
		{
			"bufferView":3,
			"componentType":5125,
			"count":4406400,
			"type":"SCALAR"
		},
		{
			"bufferView":4,
			"componentType":5126,
			"count":10839,
			"max":[
				2.5414938926696777,
				2.5414862632751465,
				-11.806304931640625
			],
			"min":[
				-2.5414791107177734,
				-2.541486978530884,
				-11.874276161193848
			],
			"type":"VEC3"
		},
		{
			"bufferView":5,
			"componentType":5126,
			"count":10839,
			"type":"VEC3"
		},
		{
			"bufferView":6,
			"componentType":5126,
			"count":10839,
			"type":"VEC2"
		},
		{
			"bufferView":7,
			"componentType":5123,
			"count":55296,
			"type":"SCALAR"
		},
		{
			"bufferView":8,
			"componentType":5126,
			"count":283656,
			"max":[
				3.1586766242980957,
				3.15867018699646,
				-0.45418453216552734
			],
			"min":[
				-3.158663749694824,
				-3.1586713790893555,
				-11.819596290588379
			],
			"type":"VEC3"
		},
		{
			"bufferView":9,
			"componentType":5126,
			"count":283656,
			"type":"VEC3"
		},
		{
			"bufferView":10,
			"componentType":5126,
			"count":283656,
			"type":"VEC2"
		},
		{
			"bufferView":11,
			"componentType":5125,
			"count":1468800,
			"type":"SCALAR"
		},
		{
			"bufferView":12,
			"componentType":5126,
			"count":17515,
			"max":[
				0.7886778712272644,
				1.750016212463379,
				0.03762450069189072
			],
			"min":[
				-0.7886649966239929,
				-0.7851152420043945,
				-0.05382504314184189
			],
			"type":"VEC3"
		},
		{
			"bufferView":13,
			"componentType":5126,
			"count":17515,
			"type":"VEC3"
		},
		{
			"bufferView":14,
			"componentType":5126,
			"count":17515,
			"type":"VEC2"
		},
		{
			"bufferView":15,
			"componentType":5123,
			"count":32544,
			"type":"SCALAR"
		}
	],
	"bufferViews":[
		{
			"buffer":0,
			"byteLength":10631376,
			"byteOffset":0,
			"target":34962
		},
		{
			"buffer":0,
			"byteLength":10631376,
			"byteOffset":10631376,
			"target":34962
		},
		{
			"buffer":0,
			"byteLength":7087584,
			"byteOffset":21262752,
			"target":34962
		},
		{
			"buffer":0,
			"byteLength":17625600,
			"byteOffset":28350336,
			"target":34963
		},
		{
			"buffer":0,
			"byteLength":130068,
			"byteOffset":45975936,
			"target":34962
		},
		{
			"buffer":0,
			"byteLength":130068,
			"byteOffset":46106004,
			"target":34962
		},
		{
			"buffer":0,
			"byteLength":86712,
			"byteOffset":46236072,
			"target":34962
		},
		{
			"buffer":0,
			"byteLength":110592,
			"byteOffset":46322784,
			"target":34963
		},
		{
			"buffer":0,
			"byteLength":3403872,
			"byteOffset":46433376,
			"target":34962
		},
		{
			"buffer":0,
			"byteLength":3403872,
			"byteOffset":49837248,
			"target":34962
		},
		{
			"buffer":0,
			"byteLength":2269248,
			"byteOffset":53241120,
			"target":34962
		},
		{
			"buffer":0,
			"byteLength":5875200,
			"byteOffset":55510368,
			"target":34963
		},
		{
			"buffer":0,
			"byteLength":210180,
			"byteOffset":61385568,
			"target":34962
		},
		{
			"buffer":0,
			"byteLength":210180,
			"byteOffset":61595748,
			"target":34962
		},
		{
			"buffer":0,
			"byteLength":140120,
			"byteOffset":61805928,
			"target":34962
		},
		{
			"buffer":0,
			"byteLength":65088,
			"byteOffset":61946048,
			"target":34963
		}
	],
	"samplers":[
		{
			"magFilter":9729,
			"minFilter":9987
		}
	],
	"buffers":[
		{
			"byteLength":62011136,
			"uri":"sprite_with_texture.bin"
		}
	]
}
